<svg width="20" height="20" viewBox="0 0 20 20" fill="none" xmlns="http://www.w3.org/2000/svg">
<path d="M9.08324 1.75006C5.24991 2.16673 2.16658 5.25006 1.74991 9.00006C1.24991 13.1667 3.83324 16.7501 7.49991 17.9167V16.0001C7.49991 16.0001 7.16658 16.0834 6.74991 16.0834C5.58324 16.0834 5.08324 15.0834 4.99991 14.5001C4.91658 14.1667 4.74991 13.9167 4.49991 13.6667C4.24991 13.5834 4.16658 13.5834 4.16658 13.5001C4.16658 13.3334 4.41658 13.3334 4.49991 13.3334C4.99991 13.3334 5.41658 13.9167 5.58324 14.1667C5.99991 14.8334 6.49991 15.0001 6.74991 15.0001C7.08324 15.0001 7.33324 14.9167 7.49991 14.8334C7.58324 14.2501 7.83324 13.6667 8.33324 13.3334C6.41658 12.9167 4.99991 11.8334 4.99991 10.0001C4.99991 9.0834 5.41658 8.16673 5.99991 7.50006C5.91658 7.3334 5.83324 6.91673 5.83324 6.3334C5.83324 6.00006 5.83324 5.50006 6.08324 5.00006C6.08324 5.00006 7.24991 5.00006 8.41658 6.0834C8.83324 5.91673 9.41658 5.8334 9.99991 5.8334C10.5832 5.8334 11.1666 5.91673 11.6666 6.0834C12.7499 5.00006 13.9999 5.00006 13.9999 5.00006C14.1666 5.50006 14.1666 6.00006 14.1666 6.3334C14.1666 7.00006 14.0832 7.3334 13.9999 7.50006C14.5832 8.16673 14.9999 9.00006 14.9999 10.0001C14.9999 11.8334 13.5832 12.9167 11.6666 13.3334C12.1666 13.7501 12.4999 14.5001 12.4999 15.2501V18.0001C15.9166 16.9167 18.3332 13.7501 18.3332 10.0834C18.3332 5.0834 14.0832 1.16673 9.08324 1.75006Z" fill="white"/>
</svg>
